<?xml version="1.0" standalone="no"?><!DOCTYPE svg PUBLIC "-//W3C//DTD SVG 1.1//EN" "http://www.w3.org/Graphics/SVG/1.1/DTD/svg11.dtd"><svg t="1719299421721" class="icon" viewBox="0 0 1024 1024" version="1.1" xmlns="http://www.w3.org/2000/svg" p-id="8170" width="64" height="64" xmlns:xlink="http://www.w3.org/1999/xlink"><path d="M512 1024C230.4 1024 0 793.6 0 512S230.4 0 512 0 1024 230.4 1024 512 793.6 1024 512 1024z" fill="#3773EA" p-id="8171" data-spm-anchor-id="a313x.search_index.0.i1.54993a81zsaT86" class="selected"></path><path d="M1024 548.990031c0-30.846031-3.056246-61.0304-8.711877-90.269539l-183.689846-38.061292-441.5488-41.070277s-19.739569-12.981169-8.491323 49.656123c11.153723 62.070154 30.200123 242.514708 30.200123 242.514708l28.293908 5.482338 227.800615 331.382154C871.817846 956.951631 1024 770.063754 1024 548.990031z" fill="#3773EA" p-id="8172" data-spm-anchor-id="a313x.search_index.0.i2.54993a81zsaT86" class="selected"></path><path d="M508.061538 794.797292c-132.474092 0-240.246154-93.105231-240.246153-207.541169 0-37.872246 11.957169-74.972554 34.548184-107.236431l188.920123-251.557415c3.717908-4.930954 9.924923-7.908431 16.604554-7.908431 6.648123 0 12.870892 2.961723 16.604554 7.908431L713.302646 479.389538c23.032123 32.799508 35.0208 69.947077 35.0208 107.898093 0 114.404431-107.772062 207.509662-240.246154 207.509661z m-44.457353-321.425723a3.828185 3.828185 0 0 0 0-5.797415l-6.411816-5.813169a4.883692 4.883692 0 0 0-6.411815 0l-28.829539 26.104123-28.861046-26.104123a4.883692 4.883692 0 0 0-6.411815 0l-6.411816 5.813169a3.828185 3.828185 0 0 0 0 5.797415l28.845293 26.104123-28.829539 26.104123a3.828185 3.828185 0 0 0 0 5.797416l6.396062 5.797415a4.883692 4.883692 0 0 0 6.411815 0l28.845293-26.104123 28.845292 26.104123a4.883692 4.883692 0 0 0 6.411815 0l6.411816-5.797415a3.828185 3.828185 0 0 0 0-5.797416l-28.829539-26.104123 28.829539-26.104123z m53.531569 124.549908c-61.518769 0-111.489969 40.156554-113.333169 90.238031 0 0 57.722092-28.199385 114.908553-28.199385 56.130954 0 111.742031 28.199385 111.742031 28.199385-1.827446-50.097231-51.798646-90.238031-113.317415-90.238031z m127.7952-124.549908a3.828185 3.828185 0 0 0 0-5.797415l-6.411816-5.813169a4.883692 4.883692 0 0 0-6.411815 0l-28.845292 26.104123-28.845293-26.104123a4.883692 4.883692 0 0 0-6.411815 0l-6.411815 5.813169a3.828185 3.828185 0 0 0 0 5.797415l28.845292 26.104123-28.845292 26.104123a3.828185 3.828185 0 0 0 0 5.797416l6.411815 5.797415a4.883692 4.883692 0 0 0 6.411815 0l28.829539-26.104123 28.861046 26.104123a4.883692 4.883692 0 0 0 6.411815 0l6.411816-5.797415a3.828185 3.828185 0 0 0 0-5.797416l-28.845292-26.104123 28.845292-26.104123z" fill="#FFFFFF" opacity=".918" p-id="8173"></path></svg>