<?xml version="1.0" encoding="UTF-8" standalone="no"?>
<svg
   t="1730874555487"
   class="icon"
   viewBox="0 0 16 16"
   version="1.1"
   p-id="10104"
   width="16"
   height="16"
   id="svg1"
   sodipodi:docname="ocr-upload.svg"
   inkscape:version="1.4 (86a8ad7, 2024-10-11)"
   xmlns:inkscape="http://www.inkscape.org/namespaces/inkscape"
   xmlns:sodipodi="http://sodipodi.sourceforge.net/DTD/sodipodi-0.dtd"
   xmlns="http://www.w3.org/2000/svg"
   xmlns:svg="http://www.w3.org/2000/svg">
  <defs
     id="defs1" />
  <sodipodi:namedview
     id="namedview1"
     pagecolor="#ffffff"
     bordercolor="#000000"
     borderopacity="0.25"
     inkscape:showpageshadow="2"
     inkscape:pageopacity="0.0"
     inkscape:pagecheckerboard="0"
     inkscape:deskcolor="#d1d1d1"
     showgrid="true"
     inkscape:zoom="35.664698"
     inkscape:cx="7.5845307"
     inkscape:cy="7.500414"
     inkscape:window-width="1920"
     inkscape:window-height="1009"
     inkscape:window-x="-8"
     inkscape:window-y="-8"
     inkscape:window-maximized="1"
     inkscape:current-layer="svg1">
    <inkscape:grid
       id="grid1"
       units="px"
       originx="0"
       originy="0"
       spacingx="4"
       spacingy="4"
       empcolor="#0099e5"
       empopacity="0.30196078"
       color="#0099e5"
       opacity="0.14901961"
       empspacing="5"
       enabled="true"
       visible="true" />
    <inkscape:grid
       id="grid2"
       units="px"
       originx="0"
       originy="0"
       spacingx="1"
       spacingy="1"
       empcolor="#0099e5"
       empopacity="0.30196078"
       color="#0099e5"
       opacity="0.14901961"
       empspacing="5"
       enabled="true"
       visible="true" />
  </sodipodi:namedview>
  <path
     d="m 12.632487,7.9428883 m 3.089893,3.5326357 c -0.0025,0 -0.07446,-0.14011 -0.160066,-0.311318 L 13.31757,6.6751434 C 13.231938,6.5039106 13.00526,6.3638693 12.813818,6.3639295 l -1.86039,6.36e-4 c -0.191439,6.64e-5 -0.348088,0.1567416 -0.348088,0.348196 v 0.591468 c 0,0.1914312 0.156628,0.3481728 0.348088,0.3483195 l 0.591471,3.18e-4 c 0.191441,1.297e-4 0.417551,0.1406202 0.502465,0.3121957 l 1.591034,3.2149943 c 0.08489,0.171581 -0.0022,0.31195 -0.193711,0.31195 h -2.526992 c -0.191442,0 -0.348088,0.156621 -0.348088,0.348076 v 1.820978 c 0,0.191433 -0.156626,0.348076 -0.348087,0.348076 H 5.842224 c -0.1914389,0 -0.3480879,-0.156621 -0.3480879,-0.348076 v -1.820978 c 0,-0.191433 -0.1566274,-0.348076 -0.348088,-0.348076 H 2.5678508 c -0.191438,0 -0.2762691,-0.1392 -0.1884916,-0.309332 L 4.0432735,7.9573255 C 4.1310543,7.7871995 4.3594963,7.6480953 4.5509343,7.6482203 l 0.5761411,3.165e-4 C 5.3185175,7.648668 5.4751634,7.4921425 5.4751634,7.3007082 V 6.7143794 c 0,-0.1914328 -0.1566274,-0.3480123 -0.348088,-0.3479521 l -1.851852,6.36e-4 C 3.0837821,6.3671312 2.8568116,6.5071432 2.7708362,6.6781985 L 0.51495769,11.167342 c -0.085956,0.171048 -0.15427162,0.311011 -0.1518186,0.311011 0.002547,0 0.004477,0.156621 0.004477,0.348071 v 3.160966 c 0,0.191433 0.15662707,0.348076 0.34808733,0.348076 H 15.378702 c 0.191441,0 0.348087,-0.156622 0.348087,-0.348076 V 11.8235 c -1.9e-5,-0.191432 -0.0019,-0.348053 -0.0045,-0.348053 z M 4.8572526,4.818697 h 1.9102646 v 5.361906 H 9.3257789 V 4.818697 h 2.0125741 c 0.191442,0 0.244205,-0.1172324 0.117233,-0.2605002 L 8.2853435,0.98100519 C 8.15837,0.83773125 7.9519922,0.83895853 7.8267601,0.98386113 L 4.7368894,4.5555632 c -0.1252445,0.1447883 -0.07109,0.263248 0.1203662,0.263248 z"
     fill="#3773ea"
     p-id="10105"
     id="path1"
     style="stroke-width:0.0199991" />
</svg>
